<svg xmlns="http://www.w3.org/2000/svg" viewBox="0 0 512 512">
  <defs>
    <linearGradient id="grad" x1="0%" y1="0%" x2="100%" y2="100%">
      <stop offset="0%" style="stop-color:#3b82f6;stop-opacity:1" />
      <stop offset="100%" style="stop-color:#1d4ed8;stop-opacity:1" />
    </linearGradient>
  </defs>
  <rect width="512" height="512" rx="120" fill="url(#grad)"/>
  <rect x="130" y="130" width="252" height="252" rx="20" fill="none" stroke="white" stroke-width="24" opacity="0.4"/>
  
  <!-- Dots -->
  <circle cx="130" cy="130" r="30" fill="white"/>
  <circle cx="256" cy="130" r="30" fill="white"/>
  <circle cx="382" cy="130" r="30" fill="white"/>
  
  <circle cx="130" cy="256" r="30" fill="white"/>
  <circle cx="256" cy="256" r="30" fill="white"/>
  <circle cx="382" cy="256" r="30" fill="white"/>
  
  <circle cx="130" cy="382" r="30" fill="white"/>
  <circle cx="256" cy="382" r="30" fill="white"/>
  <circle cx="382" cy="382" r="30" fill="white"/>
  
  <!-- Completed Box Lines -->
  <rect x="130" y="130" width="126" height="126" fill="#60a5fa" opacity="0.8"/>
  <line x1="130" y1="130" x2="256" y2="130" stroke="white" stroke-width="16" stroke-linecap="round"/>
  <line x1="130" y1="130" x2="130" y2="256" stroke="white" stroke-width="16" stroke-linecap="round"/>
  <line x1="256" y1="130" x2="256" y2="256" stroke="white" stroke-width="16" stroke-linecap="round"/>
  <line x1="130" y1="256" x2="256" y2="256" stroke="white" stroke-width="16" stroke-linecap="round"/>
  
  <text x="193" y="215" font-family="sans-serif" font-weight="bold" font-size="80" fill="white" text-anchor="middle">X</text>
</svg>